<?xml version="1.0" encoding="utf-8"?><!-- Uploaded to: SVG Repo, www.svgrepo.com, Generator: SVG Repo Mixer Tools -->
<svg width="18px" height="18px" viewBox="0 0 24 24" fill="none" xmlns="http://www.w3.org/2000/svg">
<path d="M8.4646 8.46476C10.4172 6.51214 13.583 6.51214 15.5357 8.46476M5.63599 5.63653C9.15071 2.12181 14.8492 2.12181 18.3639 5.63653M14.8369 15.85C13.1833 15.4714 10.8167 15.4714 9.16307 15.85C8.42694 16.0185 8 16.7196 8 17.4748V17.6176C8 18.4307 7.50776 19.1629 6.75482 19.4697L5.75482 19.8773C4.43939 20.4134 3 19.4457 3 18.0252V16.4056C3 15.8686 3.21106 15.3475 3.61995 14.9993C8.31663 11.0002 15.6834 11.0002 20.3801 14.9993C20.7889 15.3475 21 15.8686 21 16.4056V18.0252C21 19.4457 19.5606 20.4134 18.2452 19.8773L17.2452 19.4697C16.4922 19.1629 16 18.4307 16 17.6176V17.4748C16 16.7196 15.5731 16.0185 14.8369 15.85Z" stroke="#000000" stroke-width="2" stroke-linecap="round" stroke-linejoin="round"/>
</svg>