<?xml version="1.0" encoding="UTF-8" standalone="no"?>
<svg
   width="46.56477"
   height="47.674557"
   viewBox="0 0 46.56477 47.674557"
   fill="none"
   version="1.1"
   id="svg2"
   sodipodi:docname="logo.svg"
   inkscape:version="1.3.2 (091e20ef0f, 2023-11-25)"
   xmlns:inkscape="http://www.inkscape.org/namespaces/inkscape"
   xmlns:sodipodi="http://sodipodi.sourceforge.net/DTD/sodipodi-0.dtd"
   xmlns="http://www.w3.org/2000/svg"
   xmlns:svg="http://www.w3.org/2000/svg">
  <defs
     id="defs2" />
  <sodipodi:namedview
     id="namedview2"
     pagecolor="#ffffff"
     bordercolor="#666666"
     borderopacity="1.0"
     inkscape:showpageshadow="2"
     inkscape:pageopacity="0.0"
     inkscape:pagecheckerboard="0"
     inkscape:deskcolor="#d1d1d1"
     showgrid="false"
     inkscape:zoom="1"
     inkscape:cx="277.5"
     inkscape:cy="-14.5"
     inkscape:window-width="2048"
     inkscape:window-height="1082"
     inkscape:window-x="0"
     inkscape:window-y="0"
     inkscape:window-maximized="1"
     inkscape:current-layer="svg2" />
  <g
     id="g2"
     transform="matrix(4.7292836,0,0,4.7292836,-313.69481,-505.15253)"
     style="fill:#222222;fill-opacity:1">
    <path
       d="m 71.569917,111.68178 c 0.878416,-0.62415 1.629833,-0.79216 2.236258,-0.70405 0.646113,0.0939 1.150408,0.47651 1.497806,0.99668 0.591873,0.8853 0.701146,2.17091 0.340784,2.93476 -0.146844,0.31142 -0.367507,0.54557 -0.64823,0.67416 -0.276754,0.127 -0.620183,0.1569 -1.031081,0.0212 -0.08043,-0.0265 -0.150019,-0.078 -0.199231,-0.14685 l -2.289704,-3.22262 c -0.06112,-0.0857 -0.08546,-0.19209 -0.068,-0.29607 0.01773,-0.10372 0.07567,-0.19632 0.161396,-0.25718 z m 0.792956,0.43048 c 0,0 1.968765,2.77072 1.969029,2.77072 0.129117,0.0273 0.240242,0.0217 0.334169,-0.0212 0.142346,-0.0653 0.232833,-0.20637 0.296333,-0.37544 0.08546,-0.22913 0.1143,-0.50932 0.09525,-0.80142 -0.05001,-0.75565 -0.413279,-1.61211 -1.136121,-1.86558 -0.416454,-0.14579 -0.93292,-0.0744 -1.55866,0.29289 z"
       style="clip-rule:evenodd;fill:#222222;fill-opacity:1;fill-rule:evenodd;stroke-width:0.264583;stroke-linejoin:round;stroke-miterlimit:2"
       id="path1-6" />
    <path
       d="m 71.437625,111.72121 c -0.342635,-1.02182 -0.285221,-1.78964 -0.02514,-2.34421 0.277283,-0.59108 0.789516,-0.96282 1.388268,-1.14459 1.018911,-0.30956 2.280973,-0.0413 2.907242,0.52494 0.255588,0.23098 0.41566,0.50985 0.457465,0.81597 0.04101,0.30189 -0.0299,0.63897 -0.278871,0.99298 -0.04868,0.0691 -0.118269,0.12092 -0.198438,0.1479 l -3.747823,1.25704 c -0.100012,0.0333 -0.20902,0.0259 -0.303212,-0.0209 -0.09419,-0.0471 -0.165894,-0.12938 -0.199496,-0.22913 z m 0.642144,-0.63394 c 0,0 3.222625,-1.08083 3.222625,-1.08109 0.0635,-0.11536 0.09049,-0.22357 0.07646,-0.32597 -0.02117,-0.15504 -0.12991,-0.28257 -0.273314,-0.39238 -0.194469,-0.14816 -0.45429,-0.25717 -0.739511,-0.32358 -0.737393,-0.17145 -1.662377,-0.072 -2.11455,0.54636 -0.26035,0.35613 -0.341841,0.87128 -0.171714,1.57666 z"
       style="clip-rule:evenodd;fill:#222222;fill-opacity:1;fill-rule:evenodd;stroke-width:0.264583;stroke-linejoin:round;stroke-miterlimit:2"
       id="path2-7" />
    <path
       d="m 71.602196,112.10512 c -1.625865,0 -2.466181,-0.61013 -2.82575,-1.36234 -0.539485,-1.12924 0.0299,-2.69822 0.890852,-3.4507 0.420423,-0.36724 0.90461,-0.54081 1.357842,-0.45799 0.313531,0.0574 0.623358,0.23416 0.892175,0.58446 0.05292,0.0693 0.08176,0.15426 0.08176,0.24157 v 4.04812 c 0,0.21908 -0.1778,0.39688 -0.396875,0.39688 z m -0.396875,-0.8083 c 0,0 0,-3.48986 0,-3.48986 -0.458523,-0.46355 -1.045633,-0.0238 -1.42584,0.56833 -0.423598,0.6596 -0.636587,1.58882 -0.16457,2.22885 0.279664,0.37914 0.789516,0.63156 1.59041,0.69268 z"
       style="clip-rule:evenodd;fill:#222222;fill-opacity:1;fill-rule:evenodd;stroke-width:0.264583;stroke-linejoin:round;stroke-miterlimit:2"
       id="path3" />
    <path
       d="m 71.546369,111.91647 c 1.288785,0.83952 1.626923,1.77535 1.507066,2.58286 -0.178329,1.20015 -1.46341,2.19075 -2.540793,2.36617 -0.537369,0.0876 -1.020234,-0.0238 -1.338792,-0.32993 -0.219604,-0.21114 -0.373592,-0.51938 -0.397933,-0.95171 -0.0048,-0.0844 0.01746,-0.16801 0.0635,-0.23892 l 2.157941,-3.31258 c 0.119592,-0.18362 0.36539,-0.23548 0.549011,-0.11589 z m -0.109538,0.89561 c 0,0 -1.855258,2.84798 -1.855258,2.84824 0.02196,0.12991 0.068,0.23151 0.142346,0.30295 0.112712,0.10848 0.277283,0.14103 0.457994,0.13785 0.244475,-0.004 0.515673,-0.0804 0.78052,-0.20532 0.684478,-0.32358 1.347788,-0.97578 1.318419,-1.74122 -0.01693,-0.4408 -0.27305,-0.89508 -0.844021,-1.3425 z"
       style="clip-rule:evenodd;fill:#222222;fill-opacity:1;fill-rule:evenodd;stroke-width:0.264583;stroke-linejoin:round;stroke-miterlimit:2"
       id="path4" />
    <path
       d="m 71.578119,111.93208 c -0.278871,1.04061 -0.750888,1.64915 -1.274233,1.96771 -0.557742,0.33946 -1.190096,0.36618 -1.789378,0.18706 -1.020233,-0.30507 -1.92405,-1.22608 -2.13307,-2.04417 -0.08546,-0.33364 -0.06482,-0.65458 0.06959,-0.93266 0.132556,-0.27437 0.377825,-0.5162 0.78105,-0.67363 0.07858,-0.0307 0.165365,-0.0354 0.246856,-0.0138 l 3.818467,1.02315 c 0.101865,0.0273 0.188383,0.0939 0.241035,0.18494 0.05265,0.0913 0.06694,0.1995 0.03969,0.30136 z m -0.885296,0.17357 c 0,0 -3.283215,-0.87974 -3.283215,-0.87974 -0.116945,0.0614 -0.198966,0.13652 -0.243945,0.22939 -0.06826,0.14102 -0.04815,0.30745 0.01111,0.4781 0.0799,0.23098 0.236273,0.46541 0.437356,0.6784 0.520171,0.55033 1.345936,0.97842 2.064544,0.71305 0.413808,-0.15293 0.766233,-0.53737 1.014148,-1.2192 z"
       style="clip-rule:evenodd;fill:#222222;fill-opacity:1;fill-rule:evenodd;stroke-width:0.264583;stroke-linejoin:round;stroke-miterlimit:2"
       id="path5" />
  </g>
</svg>
